<svg width="25" height="24" viewBox="0 0 25 24" fill="none" xmlns="http://www.w3.org/2000/svg">
<g id="vuesax/outline/calendar-2">
<g id="calendar-2">
<path id="Vector" d="M8.3 5.75C7.89 5.75 7.55 5.41 7.55 5V2C7.55 1.59 7.89 1.25 8.3 1.25C8.71 1.25 9.05 1.59 9.05 2V5C9.05 5.41 8.71 5.75 8.3 5.75Z" fill="white"/>
<path id="Vector_2" d="M16.3 5.75C15.89 5.75 15.55 5.41 15.55 5V2C15.55 1.59 15.89 1.25 16.3 1.25C16.71 1.25 17.05 1.59 17.05 2V5C17.05 5.41 16.71 5.75 16.3 5.75Z" fill="white"/>
<path id="Vector_3" d="M20.8 9.83997H3.8C3.39 9.83997 3.05 9.49997 3.05 9.08997C3.05 8.67997 3.39 8.33997 3.8 8.33997H20.8C21.21 8.33997 21.55 8.67997 21.55 9.08997C21.55 9.49997 21.21 9.83997 20.8 9.83997Z" fill="white"/>
<path id="Vector_4" d="M16.3 22.75H8.3C4.65 22.75 2.55 20.65 2.55 17V8.5C2.55 4.85 4.65 2.75 8.3 2.75H16.3C19.95 2.75 22.05 4.85 22.05 8.5V17C22.05 20.65 19.95 22.75 16.3 22.75ZM8.3 4.25C5.44 4.25 4.05 5.64 4.05 8.5V17C4.05 19.86 5.44 21.25 8.3 21.25H16.3C19.16 21.25 20.55 19.86 20.55 17V8.5C20.55 5.64 19.16 4.25 16.3 4.25H8.3Z" fill="white"/>
<path id="Vector_5" d="M8.8 14.5C8.67 14.5 8.53999 14.47 8.41999 14.42C8.29999 14.37 8.19 14.3 8.09 14.21C8 14.11 7.92998 14 7.87998 13.88C7.82998 13.76 7.8 13.63 7.8 13.5C7.8 13.24 7.91 12.98 8.09 12.79C8.19 12.7 8.29999 12.63 8.41999 12.58C8.59999 12.5 8.80001 12.48 9.00001 12.52C9.06001 12.53 9.12 12.55 9.18 12.58C9.24 12.6 9.29999 12.63 9.35999 12.67C9.40999 12.71 9.45999 12.75 9.50999 12.79C9.54999 12.84 9.59998 12.89 9.62998 12.94C9.66998 13 9.70001 13.06 9.72001 13.12C9.75001 13.18 9.77001 13.24 9.78001 13.3C9.79001 13.37 9.8 13.43 9.8 13.5C9.8 13.76 9.68999 14.02 9.50999 14.21C9.31999 14.39 9.06 14.5 8.8 14.5Z" fill="white"/>
<path id="Vector_6" d="M12.3 14.5C12.04 14.5 11.78 14.39 11.59 14.21C11.55 14.16 11.51 14.11 11.47 14.06C11.43 14 11.4 13.94 11.38 13.88C11.35 13.82 11.33 13.76 11.32 13.7C11.31 13.63 11.3 13.57 11.3 13.5C11.3 13.37 11.33 13.24 11.38 13.12C11.43 13 11.5 12.89 11.59 12.79C11.87 12.51 12.32 12.42 12.68 12.58C12.81 12.63 12.91 12.7 13.01 12.79C13.19 12.98 13.3 13.24 13.3 13.5C13.3 13.57 13.29 13.63 13.28 13.7C13.27 13.76 13.25 13.82 13.22 13.88C13.2 13.94 13.17 14 13.13 14.06C13.09 14.11 13.05 14.16 13.01 14.21C12.91 14.3 12.81 14.37 12.68 14.42C12.56 14.47 12.43 14.5 12.3 14.5Z" fill="white"/>
<path id="Vector_7" d="M8.8 18C8.67 18 8.53999 17.97 8.41999 17.92C8.29999 17.87 8.19 17.8 8.09 17.71C8 17.61 7.92998 17.51 7.87998 17.38C7.82998 17.26 7.8 17.13 7.8 17C7.8 16.74 7.91 16.48 8.09 16.29C8.19 16.2 8.29999 16.13 8.41999 16.08C8.78999 15.92 9.22999 16.01 9.50999 16.29C9.54999 16.34 9.59998 16.39 9.62998 16.44C9.66998 16.5 9.70001 16.56 9.72001 16.62C9.75001 16.68 9.77001 16.74 9.78001 16.81C9.79001 16.87 9.8 16.94 9.8 17C9.8 17.26 9.68999 17.52 9.50999 17.71C9.31999 17.89 9.06 18 8.8 18Z" fill="white"/>
</g>
</g>
</svg>
