<svg width="25" height="24" viewBox="0 0 25 24" fill="none" xmlns="http://www.w3.org/2000/svg">
<g id="vuesax/outline/home">
<g id="home">
<path id="Vector" d="M12.6 18.75C12.19 18.75 11.85 18.41 11.85 18V15C11.85 14.59 12.19 14.25 12.6 14.25C13.01 14.25 13.35 14.59 13.35 15V18C13.35 18.41 13.01 18.75 12.6 18.75Z" fill="#94A3B8"/>
<path id="Vector_2" d="M18.2 22.56H7.00001C5.18001 22.56 3.52001 21.16 3.22001 19.37L1.89001 11.4C1.67001 10.16 2.28001 8.57001 3.27001 7.78001L10.2 2.23001C11.54 1.15001 13.65 1.16001 15 2.24001L21.93 7.78001C22.91 8.57001 23.51 10.16 23.31 11.4L21.98 19.36C21.68 21.13 19.98 22.56 18.2 22.56ZM12.59 2.93001C12.06 2.93001 11.53 3.09001 11.14 3.40001L4.21001 8.96001C3.65001 9.41001 3.25001 10.45 3.37001 11.16L4.70001 19.12C4.88001 20.17 5.93001 21.06 7.00001 21.06H18.2C19.27 21.06 20.32 20.17 20.5 19.11L21.83 11.15C21.94 10.45 21.54 9.39001 20.99 8.95001L14.06 3.41001C13.66 3.09001 13.12 2.93001 12.59 2.93001Z" fill="#94A3B8"/>
</g>
</g>
</svg>
