<svg width="25" height="24" viewBox="0 0 25 24" fill="none" xmlns="http://www.w3.org/2000/svg">
<g id="vuesax/outline/message">
<g id="message">
<path id="Vector" d="M12.2 22.81C11.51 22.81 10.86 22.46 10.4 21.85L8.89999 19.85C8.86999 19.81 8.74999 19.76 8.69999 19.75H8.19999C4.02999 19.75 1.44999 18.62 1.44999 13V8C1.44999 3.58 3.77999 1.25 8.19999 1.25H16.2C20.62 1.25 22.95 3.58 22.95 8V13C22.95 17.42 20.62 19.75 16.2 19.75H15.7C15.62 19.75 15.55 19.79 15.5 19.85L14 21.85C13.54 22.46 12.89 22.81 12.2 22.81ZM8.19999 2.75C4.61999 2.75 2.94999 4.42 2.94999 8V13C2.94999 17.52 4.49999 18.25 8.19999 18.25H8.69999C9.20999 18.25 9.78999 18.54 10.1 18.95L11.6 20.95C11.95 21.41 12.45 21.41 12.8 20.95L14.3 18.95C14.63 18.51 15.15 18.25 15.7 18.25H16.2C19.78 18.25 21.45 16.58 21.45 13V8C21.45 4.42 19.78 2.75 16.2 2.75H8.19999Z" fill="#94A3B8"/>
<path id="Vector_2" d="M12.2 12C11.64 12 11.2 11.55 11.2 11C11.2 10.45 11.65 10 12.2 10C12.75 10 13.2 10.45 13.2 11C13.2 11.55 12.76 12 12.2 12Z" fill="#94A3B8"/>
<path id="Vector_3" d="M16.2 12C15.64 12 15.2 11.55 15.2 11C15.2 10.45 15.65 10 16.2 10C16.75 10 17.2 10.45 17.2 11C17.2 11.55 16.76 12 16.2 12Z" fill="#94A3B8"/>
<path id="Vector_4" d="M8.19999 12C7.63999 12 7.19999 11.55 7.19999 11C7.19999 10.45 7.64999 10 8.19999 10C8.74999 10 9.19999 10.45 9.19999 11C9.19999 11.55 8.75999 12 8.19999 12Z" fill="#94A3B8"/>
</g>
</g>
</svg>
