<svg width="25" height="24" viewBox="0 0 25 24" fill="none" xmlns="http://www.w3.org/2000/svg">
<g id="vuesax/outline/more">
<g id="more">
<path id="Vector" d="M5.39999 14.75C3.87999 14.75 2.64999 13.52 2.64999 12C2.64999 10.48 3.87999 9.25 5.39999 9.25C6.91999 9.25 8.14999 10.48 8.14999 12C8.14999 13.52 6.91999 14.75 5.39999 14.75ZM5.39999 10.75C4.70999 10.75 4.14999 11.31 4.14999 12C4.14999 12.69 4.70999 13.25 5.39999 13.25C6.08999 13.25 6.64999 12.69 6.64999 12C6.64999 11.31 6.08999 10.75 5.39999 10.75Z" fill="#94A3B8"/>
<path id="Vector_2" d="M19.4 14.75C17.88 14.75 16.65 13.52 16.65 12C16.65 10.48 17.88 9.25 19.4 9.25C20.92 9.25 22.15 10.48 22.15 12C22.15 13.52 20.92 14.75 19.4 14.75ZM19.4 10.75C18.71 10.75 18.15 11.31 18.15 12C18.15 12.69 18.71 13.25 19.4 13.25C20.09 13.25 20.65 12.69 20.65 12C20.65 11.31 20.09 10.75 19.4 10.75Z" fill="#94A3B8"/>
<path id="Vector_3" d="M12.4 14.75C10.88 14.75 9.64999 13.52 9.64999 12C9.64999 10.48 10.88 9.25 12.4 9.25C13.92 9.25 15.15 10.48 15.15 12C15.15 13.52 13.92 14.75 12.4 14.75ZM12.4 10.75C11.71 10.75 11.15 11.31 11.15 12C11.15 12.69 11.71 13.25 12.4 13.25C13.09 13.25 13.65 12.69 13.65 12C13.65 11.31 13.09 10.75 12.4 10.75Z" fill="#94A3B8"/>
</g>
</g>
</svg>
